<svg xmlns="http://www.w3.org/2000/svg" viewBox="0 0 86 80"><defs><style>.cls-1{fill:#fc6d26;}.cls-2{fill:#e24329;}.cls-3{fill:#fca326;}</style></defs><g id="Layer_1" data-name="Layer 1"><path class="cls-1" d="M76,80H10A10,10,0,0,1,0,70a2,2,0,0,1,4,0,6,6,0,0,0,6,6H76a6,6,0,0,0,6-6,2,2,0,0,1,4,0A10,10,0,0,1,76,80Z"/><path class="cls-2" d="M84,72a2,2,0,0,1-2-2V10a6,6,0,0,0-6-6H10a6,6,0,0,0-6,6V70a2,2,0,0,1-4,0V10A10,10,0,0,1,10,0H76A10,10,0,0,1,86,10V70A2,2,0,0,1,84,72Z"/><path class="cls-1" d="M23.85,36.73h-8a2,2,0,0,1,0-4h8a2,2,0,0,1,0,4Z"/><path class="cls-3" d="M31.85,28.73h-8a2,2,0,0,1,0-4h8a2,2,0,0,1,0,4Z"/><path class="cls-3" d="M31.85,44.73h-8a2,2,0,0,1,0-4h8a2,2,0,0,1,0,4Z"/><path class="cls-2" d="M26.06,57.8a2,2,0,0,1-.71-3.87l11.26-4.25L53.06,33.12a2,2,0,1,1,2.84,2.81L39.14,52.81a2,2,0,0,1-.71.46l-11.67,4.4A1.93,1.93,0,0,1,26.06,57.8Z"/><path class="cls-3" d="M61.85,31.78a7,7,0,1,1,7-7A7,7,0,0,1,61.85,31.78Zm0-10a3,3,0,1,0,3,3A3,3,0,0,0,61.85,21.78Z"/><path class="cls-1" d="M45.87,59.78a2,2,0,0,1-1.42-.59,2,2,0,0,1,0-2.83l8-7.9L45.11,44.8a2,2,0,1,1,1.77-3.58l9.9,4.9a2,2,0,0,1,.52,3.21l-10,9.88A2,2,0,0,1,45.87,59.78Z"/><path class="cls-1" d="M60.84,42.89a2,2,0,0,1-1.5-.68l-5.73-6.5-7-3.58L40.3,36.9a2,2,0,1,1-2.42-3.18l7.27-5.54A2,2,0,0,1,47.26,28l8.51,4.32a2,2,0,0,1,.59.46l4.78,5.43,6-4.35a2,2,0,1,1,2.34,3.24L62,42.51A2,2,0,0,1,60.84,42.89Z"/></g></svg>
