<svg width="86" height="80" xmlns="http://www.w3.org/2000/svg"><g fill="none" fill-rule="evenodd"><path d="M7.488 35.459l-3.43 10.605c-.154.478.01.997.41 1.29l28.25 20.656-25.23-32.551zM42.991 80c-.41 0-.825-.127-1.18-.386L2.106 50.582a5.147 5.147 0 0 1-1.854-5.747l4.594-14.208a2.003 2.003 0 0 1 3.485-.61l36.242 46.758A2 2 0 0 1 42.991 80z" fill="#FCA326"/><path d="M78.516 35.459l-25.231 32.54 28.252-20.646c.399-.291.563-.812.409-1.29l-3.43-10.605zM43.013 79.983a2 2 0 0 1-1.581-3.227l36.242-46.74a2.005 2.005 0 0 1 1.925-.745c.73.128 1.33.65 1.559 1.355l4.594 14.207a5.148 5.148 0 0 1-1.853 5.747L44.192 79.599a1.999 1.999 0 0 1-1.18.386z" fill="#FCA326"/><path d="M10.838 33.227l26.75 34.513-11.145-34.513H10.838zM43 79.984a2 2 0 0 1-1.582-.775L5.176 32.452a2 2 0 0 1 1.58-3.225H27.9a2 2 0 0 1 1.903 1.385L44.902 77.37A2 2 0 0 1 43 79.984z" fill="#FC6D26"/><path d="M59.565 33.227l-11.147 34.52 26.77-34.52H59.564zM43.01 79.984a2 2 0 0 1-1.902-2.614l15.1-46.758a2 2 0 0 1 1.902-1.385h21.16a2 2 0 0 1 1.58 3.226L44.59 79.21a1.996 1.996 0 0 1-1.58.774z" fill="#FC6D26"/><path d="M60.852 29.242l7.834-24.268 7.831 24.268H60.853zM43.011 71.475L30.659 33.226h24.703L43.01 71.476zM9.5 29.242L17.32 4.974l7.846 24.268H9.5zm71.666 1.386L72.074 2.444A3.575 3.575 0 0 0 68.678 0h-.02a3.508 3.508 0 0 0-3.368 2.466l-8.636 26.76h-27.29l-8.653-26.76A3.507 3.507 0 0 0 17.345 0h-.02c-1.54 0-2.902.98-3.4 2.467L4.853 30.63a1.999 1.999 0 0 0 1.902 2.613H26.46l14.649 45.356a2 2 0 0 0 3.806 0L59.56 33.242h19.704a2 2 0 0 0 1.904-2.614z" fill="#E24329"/></g></svg>