<svg width="24" height="24" viewBox="0 0 24 24" fill="none" xmlns="http://www.w3.org/2000/svg">
<path d="M1.33334 9.33332L7.58668 15.3333V9.33332L4.92001 1.14666C4.78334 0.725325 4.13601 0.725325 4.00001 1.14666L1.33334 9.33332Z" fill="#E24329"/>
<path d="M22.6667 9.33332L16.4133 15.3333V9.33332L19.08 1.14666C19.2167 0.725325 19.864 0.725325 20 1.14666L22.6667 9.33332Z" fill="#E24329"/>
<path d="M12 22.92L2 9.33334H22L12 22.92Z" fill="#E24329"/>
<path d="M12 22.92L7.58668 9.33334H1.33334L4.00001 16.6667L12 22.92Z" fill="#FC6D26"/>
<path d="M12 22.92L16.4133 9.33334H22.6667L20 16.6667L12 22.92Z" fill="#FC6D26"/>
<path d="M1.33333 9.33334L0.0666658 13.44C-0.0533342 13.8167 0.0666659 14.24 0.399999 14.48L12.0133 22.92L1.33333 9.33334Z" fill="#FCA326"/>
<path d="M22.6667 9.33334L23.9333 13.44C24.0533 13.8167 23.9333 14.24 23.6 14.48L12 22.92L22.6667 9.33334Z" fill="#FCA326"/>
</svg>
