<svg width="375" height="288" viewBox="0 0 375 288" fill="none" xmlns="http://www.w3.org/2000/svg">
<circle cx="126" cy="218" r="59.5" stroke="#C7C7F2"/>
<path d="M85.4359 249.852L85.1225 250.802L85.4359 249.852L83.305 249.149C83.1036 247.461 83 245.743 83 244C83 241.896 83.151 239.828 83.4427 237.806L85.436 237.148C92.9779 234.659 96.5445 226.048 92.9717 218.955L92.1979 217.419C94.6187 214.344 97.4498 211.609 100.609 209.294L101.955 209.972C109.048 213.545 117.659 209.978 120.148 202.436L120.507 201.347C122.305 201.118 124.139 201 126 201C128.224 201 130.409 201.169 132.541 201.494L132.852 202.436C135.341 209.978 143.952 213.545 151.045 209.972L151.796 209.594C155.056 212.042 157.958 214.944 160.406 218.204L160.028 218.955C156.455 226.048 160.022 234.659 167.564 237.148L168.506 237.459C168.831 239.591 169 241.776 169 244C169 245.861 168.882 247.695 168.653 249.493L167.564 249.852C160.022 252.341 156.455 260.952 160.028 268.045L160.706 269.391C158.391 272.55 155.656 275.381 152.581 277.802L151.045 277.028C143.952 273.455 135.341 277.022 132.852 284.564L132.194 286.557C130.172 286.849 128.104 287 126 287C124.257 287 122.539 286.896 120.851 286.695L120.148 284.564C117.659 277.022 109.048 273.455 101.955 277.028L99.8114 278.108C96.8406 275.823 94.1766 273.159 91.8921 270.189L92.9717 268.045C96.5446 260.952 92.9779 252.341 85.4359 249.852ZM126 261C135.389 261 143 253.389 143 244C143 234.611 135.389 227 126 227C116.611 227 109 234.611 109 244C109 253.389 116.611 261 126 261Z" fill="#FAFAFA" stroke="#C7C7F2" stroke-width="2"/>
<circle cx="363" cy="148" r="59.5" stroke="#C7C7F2"/>
<path d="M317 144H333" stroke="#C7C7F2" stroke-linecap="round"/>
<path d="M323 128H347" stroke="#C7C7F2" stroke-linecap="round"/>
<path d="M314 136H322" stroke="#C7C7F2" stroke-linecap="round"/>
<path d="M320 120H336" stroke="#C7C7F2" stroke-linecap="round"/>
<path d="M322 168H330" stroke="#C7C7F2" stroke-linecap="round"/>
<path d="M326 136H334" stroke="#C7C7F2" stroke-linecap="round"/>
<path d="M315 160H331" stroke="#C7C7F2" stroke-linecap="round"/>
<path d="M332 176H348" stroke="#C7C7F2" stroke-linecap="round"/>
<path d="M341 184H349" stroke="#C7C7F2" stroke-linecap="round"/>
<path d="M365 184H385" stroke="#C7C7F2" stroke-linecap="round"/>
<path d="M351 192H375" stroke="#C7C7F2" stroke-linecap="round"/>
<path d="M373 176H389" stroke="#C7C7F2" stroke-linecap="round"/>
<path d="M334 168H350" stroke="#C7C7F2" stroke-linecap="round"/>
<path d="M329 112H345" stroke="#C7C7F2" stroke-linecap="round"/>
<path d="M349 112H373" stroke="#C7C7F2" stroke-linecap="round"/>
<path d="M353 104H377" stroke="#C7C7F2" stroke-linecap="round"/>
<path d="M319 152H343" stroke="#C7C7F2" stroke-linecap="round"/>
<path d="M332 122.99C342.25 122.781 352.185 119.361 360.4 113.2L363 111.25L365.6 113.2C373.815 119.361 383.75 122.781 394 122.99V147.83C394 161.277 387.073 173.775 375.67 180.902L363 188.821L350.33 180.902C338.927 173.775 332 161.277 332 147.83V122.99Z" fill="#FAFAFA" stroke="#C7C7F2" stroke-width="2"/>
<path d="M366 148.618C366 148.29 366.197 147.895 366.628 147.441C367.477 146.545 368 145.333 368 144C368 141.239 365.761 139 363 139C360.239 139 358 141.239 358 144C358 145.333 358.523 146.545 359.372 147.441C359.803 147.895 360 148.29 360 148.618V152C360 153.657 361.343 155 363 155C364.657 155 366 153.657 366 152V148.618Z" fill="white" stroke="#C7C7F2" stroke-width="2"/>
<circle cx="15" cy="60" r="59.5" stroke="#C7C7F2"/>
<path d="M-25 19C6.24194 19 23.7581 19 55 19" stroke="#C7C7F2" stroke-width="2"/>
<circle cx="15" cy="19" r="11" fill="#FAFAFA" stroke="#C7C7F2" stroke-width="2"/>
<path fill-rule="evenodd" clip-rule="evenodd" d="M20.7071 15.2929C21.0976 15.6834 21.0976 16.3166 20.7071 16.7071L14.7071 22.7071C14.3166 23.0976 13.6834 23.0976 13.2929 22.7071L10.2929 19.7071C9.90237 19.3166 9.90237 18.6834 10.2929 18.2929C10.6834 17.9024 11.3166 17.9024 11.7071 18.2929L14 20.5858L19.2929 15.2929C19.6834 14.9024 20.3166 14.9024 20.7071 15.2929Z" fill="#C7C7F2"/>
<circle cx="55" cy="19" r="11" fill="#FAFAFA" stroke="#C7C7F2" stroke-width="2"/>
<path fill-rule="evenodd" clip-rule="evenodd" d="M60.7071 15.2929C61.0976 15.6834 61.0976 16.3166 60.7071 16.7071L54.7071 22.7071C54.3166 23.0976 53.6834 23.0976 53.2929 22.7071L50.2929 19.7071C49.9024 19.3166 49.9024 18.6834 50.2929 18.2929C50.6834 17.9024 51.3166 17.9024 51.7071 18.2929L54 20.5858L59.2929 15.2929C59.6834 14.9024 60.3166 14.9024 60.7071 15.2929Z" fill="#C7C7F2"/>
<path d="M-16 110V54C-16 51.7909 -14.2091 50 -12 50H42C44.2091 50 46 51.7909 46 54V110" stroke="#C7C7F2" stroke-width="2" stroke-linecap="round"/>
<path d="M-10 113V56H40V113" stroke="#C7C7F2" stroke-linecap="round"/>
<path d="M20 47V48H21H30V57H0V48H9H10V47C10 44.2386 12.2386 42 15 42C17.7614 42 20 44.2386 20 47Z" fill="#FAFAFA" stroke="#C7C7F2" stroke-width="2"/>
<circle r="2" transform="matrix(-1 0 0 1 15 47)" fill="#C7C7F2"/>
<path d="M-5 85.5V104H34" stroke="#C7C7F2" stroke-width="2" stroke-linecap="round"/>
<path d="M-0.5 100C0.5 97.8333 4.4 92 6 92C8 92 11 96 13 94.5C15 93 17.1328 88.4469 19.5 87.5C22 86.5 27.5 90 30.5 85" stroke="#C7C7F2" stroke-width="2" stroke-linecap="round"/>
<rect x="-1" y="64" width="30" height="2" rx="1" fill="#C7C7F2"/>
<rect x="-1" y="69" width="36" height="2" rx="1" fill="#C7C7F2"/>
<rect x="-1" y="74" width="24" height="2" rx="1" fill="#C7C7F2"/>
<rect x="-6" y="108" width="24" height="2" rx="1" fill="#C7C7F2"/>
</svg>
