<svg width="64" height="64" viewBox="0 0 64 64" fill="none" xmlns="http://www.w3.org/2000/svg">
<g clip-path="url(#clip0)">
<path d="M10.9696 9.56165C11.7496 8.87654 12.7606 8.51318 13.7983 8.54502C14.8359 8.57686 15.8228 9.00154 16.5593 9.73318C17.2958 10.4648 17.7271 11.4488 17.7658 12.4863C17.8045 13.5237 17.4479 14.5371 16.768 15.3216" fill="#FF675F"/>
<path d="M48.64 47.168C49.4283 46.512 50.4338 46.175 51.4583 46.2235C52.4828 46.272 53.4519 46.7025 54.1747 47.4301C54.8976 48.1577 55.3216 49.1297 55.3633 50.1545C55.405 51.1793 55.0613 52.1825 54.4 52.9664" fill="#FF675F"/>
<path d="M50.8224 17.28C53.0881 17.28 54.9248 15.4462 54.9248 13.184C54.9248 10.9219 53.0881 9.08801 50.8224 9.08801C48.5567 9.08801 46.72 10.9219 46.72 13.184C46.72 15.4462 48.5567 17.28 50.8224 17.28Z" fill="#AC7FFF"/>
<path d="M31.9872 9.48485C34.2529 9.48485 36.0896 7.651 36.0896 5.38885C36.0896 3.12669 34.2529 1.29285 31.9872 1.29285C29.7215 1.29285 27.8848 3.12669 27.8848 5.38885C27.8848 7.651 29.7215 9.48485 31.9872 9.48485Z" fill="#FCA121"/>
<path d="M58.6176 36.1024C60.8833 36.1024 62.72 34.2686 62.72 32.0064C62.72 29.7442 60.8833 27.9104 58.6176 27.9104C56.3519 27.9104 54.5152 29.7442 54.5152 32.0064C54.5152 34.2686 56.3519 36.1024 58.6176 36.1024Z" fill="#FCA121"/>
<path d="M62.72 64C62.3811 63.9986 62.0565 63.8628 61.8176 63.6224L0.377601 2.18239C0.1392 1.94256 0.00538635 1.61814 0.00538635 1.27999C0.00538635 0.941828 0.1392 0.61741 0.377601 0.377586C0.617425 0.139185 0.941843 0.00537109 1.28 0.00537109C1.61816 0.00537109 1.94258 0.139185 2.1824 0.377586L63.6224 61.8176C63.8003 61.9966 63.9214 62.2242 63.9703 62.4717C64.0193 62.7193 63.9939 62.9759 63.8975 63.2091C63.8011 63.4423 63.6378 63.6418 63.4283 63.7826C63.2188 63.9233 62.9724 63.9989 62.72 64Z" fill="#380D75"/>
<path d="M16.768 16.64C16.43 16.6403 16.1056 16.5069 15.8656 16.2688C15.7466 16.15 15.6522 16.0088 15.5878 15.8534C15.5233 15.698 15.4902 15.5315 15.4902 15.3632C15.4902 15.195 15.5233 15.0285 15.5878 14.8731C15.6522 14.7177 15.7466 14.5765 15.8656 14.4576C16.1375 14.1977 16.3546 13.886 16.5043 13.5409C16.654 13.1958 16.7332 12.8243 16.7373 12.4482C16.7414 12.072 16.6702 11.6989 16.528 11.3507C16.3858 11.0024 16.1754 10.6861 15.9092 10.4203C15.643 10.1546 15.3264 9.9447 14.9779 9.80305C14.6295 9.6614 14.2562 9.59084 13.8801 9.5955C13.5039 9.60017 13.1325 9.67998 12.7877 9.83023C12.4428 9.98048 12.1315 10.1982 11.872 10.4704C11.6318 10.7106 11.3061 10.8456 10.9664 10.8456C10.6267 10.8456 10.301 10.7106 10.0608 10.4704C9.82062 10.2303 9.68568 9.90451 9.68568 9.56484C9.68568 9.39666 9.71881 9.23012 9.78317 9.07473C9.84753 8.91935 9.94187 8.77817 10.0608 8.65924C11.0728 7.65327 12.4418 7.08862 13.8688 7.08862C15.2958 7.08862 16.6648 7.65327 17.6768 8.65924C18.6855 9.66855 19.2521 11.0371 19.2521 12.464C19.2521 13.891 18.6855 15.2595 17.6768 16.2688C17.5572 16.3875 17.4153 16.4813 17.2594 16.545C17.1034 16.6087 16.9365 16.641 16.768 16.64Z" fill="#380D75"/>
<path d="M54.4 54.2464C54.2311 54.2466 54.0638 54.2133 53.9079 54.1485C53.7519 54.0837 53.6103 53.9886 53.4912 53.8688C53.3722 53.75 53.2778 53.6088 53.2134 53.4534C53.149 53.298 53.1158 53.1315 53.1158 52.9632C53.1158 52.795 53.149 52.6285 53.2134 52.4731C53.2778 52.3177 53.3722 52.1765 53.4912 52.0576C54.0192 51.5285 54.3157 50.8115 54.3157 50.064C54.3157 49.3165 54.0192 48.5996 53.4912 48.0704C52.9594 47.5452 52.2419 47.2506 51.4944 47.2506C50.7469 47.2506 50.0295 47.5452 49.4976 48.0704C49.2545 48.2915 48.9357 48.4106 48.6072 48.4031C48.2787 48.3956 47.9657 48.2621 47.733 48.0302C47.5002 47.7982 47.3656 47.4857 47.3569 47.1572C47.3482 46.8287 47.4662 46.5095 47.6864 46.2656C48.6957 45.2569 50.0643 44.6903 51.4912 44.6903C52.9182 44.6903 54.2867 45.2569 55.296 46.2656C55.7968 46.764 56.1942 47.3564 56.4654 48.0088C56.7365 48.6612 56.8761 49.3607 56.8761 50.0672C56.8761 50.7738 56.7365 51.4733 56.4654 52.1257C56.1942 52.7781 55.7968 53.3705 55.296 53.8688C55.0586 54.1077 54.7367 54.2433 54.4 54.2464Z" fill="#380D75"/>
<path d="M50.8224 18.5601C50.1102 18.5671 49.4038 18.432 48.7445 18.1628C48.0851 17.8936 47.4861 17.4956 46.9824 16.992C46.0959 16.1121 45.5419 14.9521 45.4144 13.7095C45.287 12.467 45.5942 11.2187 46.2836 10.1771C46.973 9.13559 48.0021 8.36514 49.1957 7.99696C50.3892 7.62878 51.6735 7.68561 52.8299 8.1578C53.9862 8.62998 54.9432 9.48833 55.5379 10.5867C56.1326 11.6851 56.3283 12.9557 56.0916 14.1821C55.8549 15.4085 55.2005 16.515 54.2398 17.3132C53.2791 18.1115 52.0714 18.5521 50.8224 18.5601ZM48.8256 15.1808C49.2871 15.6428 49.8944 15.9305 50.5442 15.9948C51.194 16.0592 51.8459 15.8963 52.3891 15.5338C52.9322 15.1714 53.3328 14.6318 53.5228 14.0071C53.7127 13.3824 53.6801 12.7112 53.4306 12.1078C53.1812 11.5044 52.7302 11.0061 52.1545 10.6979C51.5789 10.3897 50.9142 10.2907 50.2737 10.4176C49.6332 10.5446 49.0565 10.8896 48.642 11.3941C48.2274 11.8985 48.0005 12.5311 48 13.184C48.0001 13.9327 48.297 14.6507 48.8256 15.1808Z" fill="#380D75"/>
<path d="M32 10.7648C30.9352 10.7648 29.8943 10.449 29.009 9.85726C28.1237 9.26555 27.4339 8.42455 27.0267 7.44068C26.6195 6.4568 26.5133 5.37425 26.7215 4.32999C26.9297 3.28573 27.4429 2.32669 28.1963 1.57421C28.9497 0.821721 29.9094 0.309602 30.9539 0.102645C31.9984 -0.104313 33.0808 0.00318981 34.0642 0.411552C35.0476 0.819915 35.8877 1.51079 36.4784 2.39676C37.0691 3.28273 37.3836 4.32399 37.3824 5.3888C37.3807 6.81519 36.8129 8.18259 35.8037 9.1906C34.7944 10.1986 33.4264 10.7648 32 10.7648ZM32 2.56C31.4418 2.56 30.8961 2.72553 30.4319 3.03566C29.9678 3.34579 29.606 3.78659 29.3924 4.30232C29.1788 4.81804 29.1229 5.38553 29.2318 5.93303C29.3407 6.48052 29.6095 6.98342 30.0042 7.37814C30.399 7.77286 30.9019 8.04167 31.4494 8.15057C31.9969 8.25947 32.5643 8.20358 33.0801 7.98996C33.5958 7.77634 34.0366 7.41458 34.3467 6.95044C34.6569 6.4863 34.8224 5.94062 34.8224 5.3824C34.8207 4.63437 34.5228 3.91747 33.9939 3.38853C33.4649 2.85959 32.748 2.56169 32 2.56Z" fill="#380D75"/>
<path d="M58.6176 37.3888C57.5533 37.3888 56.513 37.0733 55.628 36.4822C54.743 35.891 54.0531 35.0508 53.6455 34.0677C53.238 33.0845 53.131 32.0026 53.3382 30.9587C53.5453 29.9148 54.0573 28.9558 54.8094 28.2028C55.5615 27.4498 56.52 26.9366 57.5636 26.7282C58.6073 26.5198 59.6893 26.6255 60.6729 27.0319C61.6565 27.4383 62.4976 28.1272 63.0898 29.0115C63.682 29.8958 63.9987 30.9358 64 32C64 33.4281 63.4331 34.7978 62.4239 35.8082C61.4147 36.8186 60.0457 37.3871 58.6176 37.3888ZM58.6176 29.1904C58.0588 29.1904 57.5127 29.3563 57.0482 29.667C56.5838 29.9777 56.2221 30.4192 56.0088 30.9357C55.7956 31.4522 55.7405 32.0203 55.8504 32.5682C55.9603 33.116 56.2304 33.6189 56.6264 34.0131C57.0224 34.4073 57.5265 34.6751 58.0749 34.7825C58.6232 34.89 59.1911 34.8323 59.7066 34.6167C60.2221 34.4011 60.662 34.0374 60.9706 33.5715C61.2792 33.1057 61.4425 32.5588 61.44 32C61.4366 31.2537 61.1378 30.5391 60.6088 30.0126C60.0799 29.486 59.3639 29.1904 58.6176 29.1904Z" fill="#380D75"/>
<path d="M32 59.8976C26.9509 59.9078 21.9938 58.5476 17.657 55.9619C13.3203 53.3763 9.76652 49.6621 7.37471 45.2155C4.9829 40.7689 3.8427 35.7565 4.07568 30.7128C4.30865 25.6691 5.90607 20.7832 8.69761 16.576C8.7909 16.4361 8.91084 16.3159 9.05058 16.2223C9.19032 16.1287 9.34713 16.0636 9.51204 16.0306C9.67696 15.9976 9.84676 15.9974 10.0117 16.0301C10.1767 16.0627 10.3337 16.1275 10.4736 16.2208C10.6135 16.3141 10.7337 16.4341 10.8273 16.5738C10.9209 16.7135 10.986 16.8703 11.019 17.0353C11.052 17.2002 11.0522 17.37 11.0196 17.535C10.9869 17.7 10.9221 17.8569 10.8288 17.9968C7.59314 22.8762 6.14567 28.725 6.73212 34.5503C7.31857 40.3756 9.90279 45.8185 14.0461 49.9551C18.1895 54.0916 23.6366 56.6669 29.4628 57.2438C35.2891 57.8207 41.1355 56.3637 46.0096 53.12C46.1495 53.0267 46.3065 52.9619 46.4715 52.9293C46.6365 52.8966 46.8063 52.8968 46.9712 52.9298C47.1361 52.9628 47.2929 53.0279 47.4326 53.1215C47.5724 53.2151 47.6923 53.3353 47.7856 53.4752C47.8789 53.6152 47.9437 53.7721 47.9764 53.9371C48.009 54.1021 48.0088 54.2719 47.9758 54.4368C47.9428 54.6017 47.8777 54.7585 47.7841 54.8983C47.6905 55.038 47.5703 55.1579 47.4304 55.2512C42.858 58.2884 37.4892 59.905 32 59.8976Z" fill="#380D75"/>
<path d="M54.1248 48.0704C53.8933 48.07 53.6662 48.0068 53.4678 47.8875C53.2693 47.7682 53.107 47.5974 52.998 47.3931C52.8889 47.1889 52.8374 46.9589 52.8487 46.7277C52.8601 46.4964 52.9339 46.2726 53.0624 46.08C55.0988 43.0456 56.4486 39.6034 57.0176 35.9936C57.0441 35.8255 57.1034 35.6643 57.1922 35.5191C57.281 35.3739 57.3975 35.2477 57.5351 35.1475C57.6726 35.0474 57.8286 34.9753 57.994 34.9355C58.1594 34.8956 58.3311 34.8887 58.4992 34.9152C58.6673 34.9417 58.8285 35.001 58.9737 35.0898C59.1189 35.1786 59.2451 35.2951 59.3453 35.4326C59.4454 35.5702 59.5174 35.7262 59.5573 35.8916C59.5972 36.057 59.6041 36.2287 59.5776 36.3968C58.9541 40.3723 57.4664 44.1626 55.2192 47.5008C55.0995 47.6803 54.9365 47.8266 54.7452 47.9261C54.5538 48.0257 54.3404 48.0753 54.1248 48.0704Z" fill="#380D75"/>
<path d="M58.2848 29.0944C57.9771 29.0981 57.6783 28.9908 57.4432 28.7922C57.2081 28.5935 57.0525 28.3169 57.0048 28.0128C56.375 24.0704 54.8248 20.332 52.48 17.1008C52.3705 16.9659 52.2896 16.8101 52.2423 16.6428C52.1949 16.4756 52.1821 16.3005 52.2046 16.1282C52.2272 15.9559 52.2846 15.79 52.3733 15.6406C52.462 15.4911 52.5803 15.3614 52.7208 15.2591C52.8613 15.1569 53.0212 15.0843 53.1907 15.0459C53.3601 15.0074 53.5357 15.0039 53.7066 15.0355C53.8775 15.0671 54.0401 15.1332 54.1846 15.2297C54.3292 15.3262 54.4525 15.4511 54.5472 15.5968C57.133 19.155 58.8433 23.2729 59.5392 27.616C59.5907 27.9512 59.5071 28.2931 59.3067 28.5667C59.1063 28.8403 58.8055 29.0232 58.4704 29.0752C58.4092 29.0871 58.3471 29.0936 58.2848 29.0944Z" fill="#380D75"/>
<path d="M47.6544 11.7568C47.3862 11.7583 47.1242 11.6755 46.9056 11.52C43.6501 9.14861 39.8767 7.58659 35.8976 6.96322C35.5731 6.89978 35.2857 6.71322 35.0957 6.44264C34.9057 6.17205 34.8277 5.83842 34.8782 5.51165C34.9287 5.18488 35.1036 4.89031 35.3664 4.68965C35.6292 4.48899 35.9595 4.39782 36.288 4.43522C40.6693 5.12281 44.8242 6.84267 48.4096 9.45282C48.6263 9.61254 48.7872 9.83651 48.8693 10.0929C48.9513 10.3493 48.9505 10.625 48.8669 10.8809C48.7832 11.1368 48.621 11.3598 48.4034 11.5182C48.1857 11.6766 47.9236 11.7623 47.6544 11.7632V11.7568Z" fill="#380D75"/>
<path d="M17.2224 11.104C16.9466 11.1053 16.6777 11.0175 16.4558 10.8536C16.234 10.6898 16.071 10.4586 15.9911 10.1946C15.9113 9.93056 15.9188 9.64782 16.0127 9.38845C16.1066 9.12908 16.2817 8.90697 16.512 8.75521C19.8785 6.513 23.6945 5.03418 27.6928 4.4224C28.0213 4.385 28.3516 4.47618 28.6144 4.67683C28.8772 4.87749 29.0522 5.17206 29.1026 5.49883C29.1531 5.82561 29.0751 6.15923 28.8851 6.42982C28.6951 6.70041 28.4077 6.88696 28.0832 6.9504C24.4487 7.50048 20.9792 8.84194 17.92 10.88C17.7143 11.0211 17.4718 11.0989 17.2224 11.104Z" fill="#380D75"/>
<path d="M39.8464 50.8351H11.9488C11.6093 50.8351 11.2838 50.7003 11.0437 50.4602C10.8037 50.2202 10.6688 49.8946 10.6688 49.5551C10.6688 49.2157 10.8037 48.8901 11.0437 48.65C11.2838 48.41 11.6093 48.2751 11.9488 48.2751H39.8464C40.1859 48.2751 40.5115 48.41 40.7515 48.65C40.9916 48.8901 41.1264 49.2157 41.1264 49.5551C41.1264 49.8946 40.9916 50.2202 40.7515 50.4602C40.5115 50.7003 40.1859 50.8351 39.8464 50.8351Z" fill="#380D75"/>
<path d="M31.584 41.7728H7.744C7.40453 41.7728 7.07895 41.6379 6.83891 41.3979C6.59886 41.1578 6.464 40.8322 6.464 40.4928C6.464 40.1533 6.59886 39.8277 6.83891 39.5877C7.07895 39.3476 7.40453 39.2128 7.744 39.2128H31.584C31.9235 39.2128 32.2491 39.3476 32.4891 39.5877C32.7291 39.8277 32.864 40.1533 32.864 40.4928C32.864 40.8322 32.7291 41.1578 32.4891 41.3979C32.2491 41.6379 31.9235 41.7728 31.584 41.7728Z" fill="#380D75"/>
<path d="M22.5088 32.7104H7.744C7.40453 32.7104 7.07895 32.5755 6.83891 32.3355C6.59886 32.0954 6.464 31.7699 6.464 31.4304C6.464 31.0909 6.59886 30.7653 6.83891 30.5253C7.07895 30.2852 7.40453 30.1504 7.744 30.1504H22.5088C22.8483 30.1504 23.1739 30.2852 23.4139 30.5253C23.6539 30.7653 23.7888 31.0909 23.7888 31.4304C23.7888 31.7699 23.6539 32.0954 23.4139 32.3355C23.1739 32.5755 22.8483 32.7104 22.5088 32.7104Z" fill="#380D75"/>
<path d="M13.2032 23.6415H7.744C7.40453 23.6415 7.07895 23.5067 6.83891 23.2666C6.59886 23.0266 6.464 22.701 6.464 22.3615C6.464 22.0221 6.59886 21.6965 6.83891 21.4564C7.07895 21.2164 7.40453 21.0815 7.744 21.0815H13.2032C13.5427 21.0815 13.8683 21.2164 14.1083 21.4564C14.3483 21.6965 14.4832 22.0221 14.4832 22.3615C14.4832 22.701 14.3483 23.0266 14.1083 23.2666C13.8683 23.5067 13.5427 23.6415 13.2032 23.6415Z" fill="#380D75"/>
</g>
<defs>
<clipPath id="clip0">
<rect width="64" height="64" fill="white"/>
</clipPath>
</defs>
</svg>
